<svg width="726" height="121" viewBox="0 0 726 121" fill="none" xmlns="http://www.w3.org/2000/svg">
<path d="M135.773 92.2436L143.323 80.8686C144.298 79.3936 146.473 79.3936 147.448 80.8686L154.998 92.2436C156.023 93.7686 155.073 95.8686 153.248 96.0686C148.023 96.6936 142.773 96.6936 137.548 96.0686C135.698 95.8686 134.748 93.7936 135.773 92.2436Z" fill="#15805D"/>
<path d="M133.498 105.419L143.298 90.6435C144.273 89.1685 146.448 89.1685 147.423 90.6435L157.248 105.443C158.273 106.993 157.298 109.094 155.448 109.294C148.848 110.019 142.148 109.993 135.323 109.268C133.473 109.068 132.473 106.994 133.498 105.419Z" fill="#15805D"/>
<path d="M128.523 120.919L145.373 95.4935L162.223 120.919H128.523Z" fill="#15805D"/>
<path d="M8.0978 92.2935L15.6728 80.8935C16.6478 79.4185 18.8228 79.4185 19.7978 80.8935L27.3228 92.2435C28.3478 93.7935 27.3978 95.8685 25.5478 96.0685C20.1478 96.6935 14.9228 96.7435 9.8728 96.1435C8.0478 95.8935 7.0728 93.8435 8.0978 92.2935Z" fill="#15805D"/>
<path d="M5.72278 105.618L15.6478 90.6435C16.6228 89.1685 18.7978 89.1685 19.7728 90.6435L29.6728 105.568C30.6728 107.093 29.7478 109.143 27.9478 109.393C21.0478 110.368 14.1978 110.444 7.39778 109.419C5.62278 109.169 4.72278 107.118 5.72278 105.618Z" fill="#15805D"/>
<path d="M0.872803 120.919L17.7228 95.4935L34.5728 120.919H0.872803Z" fill="#15805D"/>
<path d="M688.098 84.7436L695.748 69.0687C696.648 67.2187 699.298 67.2187 700.198 69.0687L707.873 84.7937C708.623 86.2937 707.673 88.0937 705.998 88.3437C700.748 89.0937 695.398 89.0437 689.973 88.2937C688.323 88.0437 687.373 86.2436 688.098 84.7436Z" fill="#15805D"/>
<path d="M685.848 102.169L695.823 81.7187C696.698 79.9187 699.273 79.9187 700.148 81.7187L710.148 102.219C710.873 103.694 709.923 105.444 708.298 105.669C701.773 106.519 694.898 106.519 687.723 105.619C686.073 105.394 685.123 103.644 685.848 102.169Z" fill="#15805D"/>
<path d="M681.723 121.069L697.998 87.7437L714.248 121.069H681.723Z" fill="#15805D"/>
<path d="M630.898 80.6185L641.048 61.6436C641.973 59.8936 644.498 59.8936 645.423 61.6436L655.573 80.6185C656.373 82.1185 655.448 83.9935 653.773 84.2435C646.823 85.2685 639.823 85.2685 632.723 84.2435C631.023 83.9935 630.098 82.1435 630.898 80.6185Z" fill="#44AB74"/>
<path d="M628.173 100.144L641.073 76.0436C641.998 74.2936 644.523 74.2936 645.448 76.0436L658.348 100.144C659.148 101.644 658.223 103.519 656.523 103.769C647.723 105.044 638.873 105.044 629.998 103.769C628.298 103.519 627.348 101.644 628.173 100.144Z" fill="#44AB74"/>
<path d="M623.223 121.094L643.248 83.6686L663.248 121.094H623.223Z" fill="#44AB74"/>
<path d="M638.973 61.2436L639.473 58.1186C639.523 57.8436 639.423 57.5686 639.223 57.3686L636.948 55.1686C636.448 54.6936 636.723 53.8436 637.398 53.7436L640.523 53.2686C640.798 53.2186 641.023 53.0436 641.148 52.7936L642.523 49.9436C642.823 49.3186 643.723 49.3186 644.023 49.9436L645.448 52.7686C645.573 53.0186 645.798 53.1936 646.073 53.2186L649.198 53.6436C649.898 53.7436 650.173 54.5686 649.673 55.0686L647.423 57.2936C647.223 57.4936 647.148 57.7686 647.198 58.0436L647.748 61.1686C647.873 61.8436 647.148 62.3686 646.548 62.0686L643.748 60.6186C643.498 60.4936 643.223 60.4936 642.973 60.6186L640.173 62.1186C639.598 62.4436 638.873 61.9186 638.973 61.2436Z" fill="#FFD54F"/>
<path d="M592.498 93.5437L599.773 82.5687C600.748 81.0937 602.923 81.0937 603.898 82.5687L611.173 93.5437C612.148 95.0187 611.298 97.0436 609.548 97.3686C604.398 98.2936 599.248 98.2936 594.098 97.3686C592.373 97.0436 591.523 95.0437 592.498 93.5437Z" fill="#15805D"/>
<path d="M590.473 106.044L599.798 91.9937C600.773 90.5187 602.948 90.5187 603.923 91.9937L613.273 106.119C614.298 107.644 613.348 109.744 611.498 109.944C605.448 110.669 599.023 110.644 592.248 109.894C590.423 109.669 589.448 107.594 590.473 106.044Z" fill="#15805D"/>
<path d="M585.598 121.069L601.848 96.5437L618.123 121.069H585.598Z" fill="#15805D"/>
<path d="M602.623 95.7186C604.266 95.7186 605.598 94.3866 605.598 92.7435C605.598 91.1005 604.266 89.7686 602.623 89.7686C600.98 89.7686 599.648 91.1005 599.648 92.7435C599.648 94.3866 600.98 95.7186 602.623 95.7186Z" fill="#FFD54F"/>
<path d="M598.423 117.118C600.066 117.118 601.398 115.786 601.398 114.143C601.398 112.5 600.066 111.168 598.423 111.168C596.78 111.168 595.448 112.5 595.448 114.143C595.448 115.786 596.78 117.118 598.423 117.118Z" fill="#FFD54F"/>
<path d="M50.5727 79.0936L61.2227 59.1686C62.1477 57.4186 64.6727 57.4186 65.5977 59.1686L76.2977 79.1686C77.0977 80.6686 76.1977 82.5186 74.4977 82.7936C67.5227 83.9186 60.1727 83.8436 52.4227 82.7186C50.7227 82.4686 49.7727 80.6186 50.5727 79.0936Z" fill="#15805D"/>
<path d="M47.7977 99.2185L61.2477 74.0685C62.1727 72.3185 64.6977 72.3185 65.6227 74.0685L79.0727 99.2185C79.8977 100.769 78.9227 102.644 77.1727 102.844C68.2477 103.894 59.0977 103.919 49.7227 102.844C47.9477 102.669 46.9727 100.769 47.7977 99.2185Z" fill="#15805D"/>
<path d="M42.6727 120.944L63.4227 82.1436L84.1477 120.944H42.6727Z" fill="#15805D"/>
<path d="M62.0478 76.3436C63.7598 76.3436 65.1478 74.9556 65.1478 73.2435C65.1478 71.5314 63.7598 70.1436 62.0478 70.1436C60.3357 70.1436 58.9478 71.5314 58.9478 73.2435C58.9478 74.9556 60.3357 76.3436 62.0478 76.3436Z" fill="#FFD54F"/>
<path d="M68.1228 95.5184C69.8348 95.5184 71.2228 94.1305 71.2228 92.4184C71.2228 90.7063 69.8348 89.3184 68.1228 89.3184C66.4107 89.3184 65.0228 90.7063 65.0228 92.4184C65.0228 94.1305 66.4107 95.5184 68.1228 95.5184Z" fill="#FFD54F"/>
<path d="M57.0728 114.394C58.7849 114.394 60.1728 113.006 60.1728 111.294C60.1728 109.582 58.7849 108.194 57.0728 108.194C55.3607 108.194 53.9728 109.582 53.9728 111.294C53.9728 113.006 55.3607 114.394 57.0728 114.394Z" fill="#FFD54F"/>
<path d="M721.892 11.4001C723.903 9.38893 723.903 6.12812 721.892 4.11694C719.881 2.10576 716.62 2.1058 714.609 4.11698C712.598 6.12817 712.598 9.3889 714.609 11.4001C716.62 13.4113 719.881 13.4113 721.892 11.4001Z" fill="white"/>
<path d="M19.9249 36.3206C22.2094 34.0361 22.2094 30.3321 19.9248 28.0475C17.6403 25.763 13.9363 25.763 11.6518 28.0475C9.36725 30.3321 9.36723 34.0361 11.6518 36.3206C13.9363 38.6051 17.6403 38.6052 19.9249 36.3206Z" fill="white"/>
<path d="M100.777 86.0148C102.33 84.4625 102.33 81.9457 100.777 80.3934C99.2252 78.841 96.7084 78.8411 95.1561 80.3934C93.6037 81.9457 93.6037 84.4625 95.156 86.0148C96.7084 87.5671 99.2252 87.5671 100.777 86.0148Z" fill="white"/>
<path d="M681.826 59.9629C683.524 58.2641 683.524 55.5098 681.826 53.8111C680.127 52.1123 677.373 52.1123 675.674 53.8111C673.975 55.5099 673.975 58.2641 675.674 59.9628C677.373 61.6616 680.127 61.6616 681.826 59.9629Z" fill="white"/>
</svg>
